<svg id="visual" viewBox="0 0 2048 1080" width="2048" height="1080" xmlns="http://www.w3.org/2000/svg" xmlns:xlink="http://www.w3.org/1999/xlink" version="1.1"><rect x="0" y="0" width="2048" height="1080" fill="#FCF6F5"></rect><path d="M0 520L68.3 498.7C136.7 477.3 273.3 434.7 409.8 402.7C546.3 370.7 682.7 349.3 819.2 344.8C955.7 340.3 1092.3 352.7 1228.8 373.7C1365.3 394.7 1501.7 424.3 1638.2 410.7C1774.7 397 1911.3 340 1979.7 311.5L2048 283L2048 0L1979.7 0C1911.3 0 1774.7 0 1638.2 0C1501.7 0 1365.3 0 1228.8 0C1092.3 0 955.7 0 819.2 0C682.7 0 546.3 0 409.8 0C273.3 0 136.7 0 68.3 0L0 0Z" fill="#89ABE3" stroke-linecap="round" stroke-linejoin="miter"></path></svg>